<svg version="1.1" id="Layer_1" xmlns="http://www.w3.org/2000/svg" xmlns:xlink="http://www.w3.org/1999/xlink" x="0px" y="0px"
	 width="100%" viewBox="0 0 1024 1024" enable-background="new 0 0 1024 1024" xml:space="preserve">
<path fill="#000000" opacity="1.000000" stroke="none" 
	d="
M625.936768,343.055969 
	C638.809021,336.835114 650.924316,329.274445 663.664062,322.323059 
	C661.836609,318.252899 658.423462,316.261505 655.910400,313.494568 
	C653.069153,310.366394 653.593567,308.424683 657.699341,307.785797 
	C673.469238,305.331818 689.257690,302.995911 705.050781,300.695465 
	C706.610229,300.468292 708.612122,299.787872 709.703430,301.445862 
	C711.043335,303.481659 709.076660,304.911072 708.016174,306.202332 
	C697.551697,318.944305 687.002380,331.616669 676.440369,344.278107 
	C675.505432,345.398956 674.491638,346.769196 672.735657,346.389130 
	C670.641968,345.935974 670.580261,344.010345 670.374268,342.416626 
	C670.011841,339.612762 669.889893,336.778625 669.624939,333.961121 
	C669.340820,330.939056 668.163940,329.680542 665.060242,331.408051 
	C657.523254,335.603027 649.918701,339.676575 641.742432,344.124939 
	C648.397827,342.655975 651.128662,343.820557 654.596191,349.331085 
	C658.662842,355.793854 659.714600,362.680328 656.778870,369.833374 
	C655.735596,372.375519 655.890442,374.479675 656.886658,376.969421 
	C664.785400,396.709229 670.152893,417.131500 671.872131,438.340240 
	C673.302673,455.987976 672.233521,473.563843 669.051270,491.044830 
	C665.671814,509.608856 659.285889,527.351318 654.800476,545.604309 
	C649.791870,565.986267 651.616028,585.270752 664.359924,602.680786 
	C665.928040,604.823181 667.788025,606.755310 669.551575,608.750549 
	C673.483398,613.198914 674.133179,616.481018 671.253967,619.260864 
	C667.412537,622.969727 663.844421,620.791016 660.581360,618.219971 
	C648.339661,608.574341 640.421326,595.981079 637.147217,580.887207 
	C635.798584,574.670105 632.965088,570.791992 627.920715,567.155762 
	C595.084839,543.485596 562.485840,519.486877 529.803589,495.603607 
	C529.175537,495.144623 528.715576,494.280640 527.388062,494.679596 
	C527.388062,506.361023 526.924988,518.152527 527.498230,529.893433 
	C528.327881,546.886108 527.631226,563.884338 528.255493,580.859436 
	C530.088318,630.697632 538.604309,679.333923 555.209473,726.451416 
	C557.706726,733.537476 557.433411,734.096680 549.929321,734.104553 
	C508.104370,734.148376 466.279358,734.146912 424.454376,734.156677 
	C410.957153,734.159851 397.459839,734.178650 383.962738,734.133789 
	C377.606384,734.112671 376.862335,733.051758 379.012390,727.009033 
	C390.387482,695.038818 396.646301,661.906799 401.726837,628.475769 
	C405.744965,602.035767 406.604553,575.463440 405.582397,548.818420 
	C405.175049,538.199707 403.609375,527.645630 401.515350,517.190613 
	C400.767944,513.458984 399.011566,511.977966 395.079254,512.037659 
	C380.418457,512.260010 365.752930,512.223083 351.089325,512.198364 
	C339.588593,512.179016 332.394196,507.267792 329.272980,497.489075 
	C326.035797,487.346985 328.954651,476.506226 337.832184,470.989349 
	C356.650330,459.294861 375.917694,448.334961 397.030121,441.124420 
	C405.457123,438.246277 414.359741,438.074921 423.043091,436.654724 
	C424.340881,436.442474 425.631958,436.189301 427.040619,435.524963 
	C415.070068,433.609772 404.791687,427.707703 394.300781,422.343842 
	C383.655304,416.901001 375.926086,408.624878 371.201630,397.675537 
	C362.820648,378.252014 366.112701,360.070526 379.524231,344.522064 
	C392.304291,329.705719 409.344696,325.242279 428.480225,329.734528 
	C436.699890,331.664185 444.181610,335.239502 450.662476,340.732666 
	C456.769562,345.908997 462.685455,351.205292 460.110565,360.681549 
	C461.268585,358.940125 460.093719,356.701538 462.751160,354.810486 
	C469.786407,361.591949 472.407288,370.630676 473.975861,379.706360 
	C477.489716,400.037140 467.887421,414.833435 452.674591,427.178406 
	C453.346832,426.913513 454.139526,426.796539 454.673492,426.361816 
	C465.250305,417.750183 478.144958,413.277832 489.793610,406.589569 
	C493.275330,404.590515 496.313904,405.410583 499.131500,407.342651 
	C503.476898,410.322418 507.109222,409.448242 511.499023,406.973694 
	C544.583435,388.323792 577.816833,369.938080 610.994751,351.453888 
	C613.171692,350.241119 615.275391,348.897095 617.931274,347.214966 
	C620.945129,345.562531 623.440979,344.309265 625.936768,343.055969 
M629.739441,345.332581 
	C577.601685,374.176056 525.463928,403.019531 473.256592,431.901520 
	C470.380463,430.094971 472.457397,427.881500 472.947418,425.963654 
	C469.311798,422.035736 465.935242,420.999420 462.003143,425.489655 
	C459.939331,427.846405 457.133087,429.645050 454.132965,430.692932 
	C442.535919,434.743652 431.330414,440.191833 418.812256,441.075714 
	C414.154053,441.404602 409.526703,441.868988 404.970734,442.911163 
	C389.004303,446.563385 374.912872,454.570801 360.645569,462.127075 
	C353.292480,466.021454 345.719818,469.608398 339.069153,474.677002 
	C332.422607,479.742371 330.065063,489.237213 333.107178,497.283691 
	C336.179199,505.409241 342.096069,508.555786 351.658508,508.327515 
	C366.815155,507.965729 381.984650,508.162079 397.148285,508.058502 
	C401.262054,508.030396 403.322357,509.806671 404.354431,513.927979 
	C408.587006,530.829895 409.551483,548.083435 409.950378,565.351807 
	C410.365967,583.344604 408.641632,601.239258 406.420319,619.106750 
	C402.390228,651.523438 396.254608,683.482605 386.879852,714.793579 
	C385.464569,719.520386 383.977875,724.225830 382.393860,729.363892 
	C439.132904,729.363892 495.227783,729.363892 552.065979,729.363892 
	C550.545166,724.580933 549.316345,720.647583 548.045044,716.728088 
	C536.236816,680.324036 529.952576,642.800903 525.792603,604.893738 
	C523.829468,587.005859 524.232422,568.975586 523.880798,550.995300 
	C523.506104,531.840027 524.333374,512.669556 523.095520,493.525421 
	C522.935852,491.055817 522.271057,489.190552 520.155945,487.582581 
	C507.424896,477.903961 494.960449,467.866913 482.067352,458.412689 
	C476.798950,454.549469 474.401062,450.539154 476.654694,444.091461 
	C477.349915,442.102509 478.675995,439.597412 476.257324,437.611633 
	C473.090668,435.011688 474.276978,433.359406 477.285034,431.697479 
	C488.651459,425.417480 499.946686,419.008789 511.282898,412.673828 
	C547.776062,392.280487 584.263245,371.876312 620.778870,351.523132 
	C635.615112,343.253693 650.487427,335.047729 665.408142,326.932037 
	C670.661072,324.074890 671.248230,324.655090 672.496704,330.374817 
	C673.171631,333.466522 672.466125,336.944092 674.834045,340.310394 
	C684.395752,328.610413 694.455017,317.917969 703.236694,306.177887 
	C702.984985,305.726776 702.733215,305.275665 702.481506,304.824554 
	C688.566406,306.998962 674.651367,309.173370 660.736267,311.347809 
	C660.386169,312.072754 660.036072,312.797729 659.685913,313.522705 
	C662.066772,315.339264 664.554199,317.034149 666.801697,319.002960 
	C669.659424,321.506287 669.371582,323.457031 665.808716,325.381104 
	C653.936890,331.792236 642.197998,338.449402 629.739441,345.332581 
M645.651794,503.348816 
	C648.215149,493.326599 649.826355,483.084229 650.508179,472.831604 
	C652.297424,445.924805 648.458984,419.707367 639.117310,394.353424 
	C636.986084,388.569061 636.530273,388.424469 631.568176,391.774200 
	C618.312927,400.722382 605.077271,409.699860 591.794556,418.607117 
	C573.666504,430.763672 555.506165,442.872101 537.350220,454.986969 
	C532.984497,457.900085 529.155029,461.134918 527.559387,466.509430 
	C525.561584,473.238770 527.191772,480.323181 525.276855,487.035858 
	C525.220215,487.234528 525.946106,487.656494 526.589539,488.222931 
	C528.869873,485.139923 531.283020,485.992584 533.752258,488.006104 
	C535.169922,489.162140 536.715942,490.160126 538.195007,491.241760 
	C568.580322,513.462708 598.956116,535.696899 629.375977,557.870483 
	C630.726501,558.854919 631.961426,560.610474 634.499573,559.722839 
	C634.599731,540.559570 641.714661,522.708435 645.651794,503.348816 
M590.462463,414.934662 
	C604.861145,405.296936 619.312256,395.735962 633.620483,385.965790 
	C637.053467,383.621582 638.986206,383.542175 640.590881,387.827545 
	C648.282532,408.368530 653.333252,429.437958 654.364746,451.431885 
	C655.381714,473.115143 651.962891,494.207947 646.716309,515.132202 
	C642.637451,531.399475 637.239502,547.463379 638.191589,564.611328 
	C638.237488,565.438049 637.934692,566.256836 636.818420,566.768250 
	C633.764160,567.135071 632.527344,562.811890 628.218933,563.050903 
	C631.297668,565.224243 633.563049,566.869568 635.877197,568.443298 
	C637.937256,569.844238 638.989258,571.678528 639.306580,574.211182 
	C640.841370,586.458801 646.074646,597.130554 653.766357,606.620422 
	C656.909119,610.497925 660.388062,614.127625 664.789124,616.679932 
	C666.189514,617.492126 667.620300,617.869507 668.801086,616.344788 
	C669.833801,615.011292 669.088196,613.822632 668.299683,612.710632 
	C667.819336,612.033325 667.289490,611.382019 666.718079,610.779602 
	C649.926147,593.076294 645.809509,572.044556 650.427124,548.727417 
	C653.923706,531.071228 660.606628,514.272766 664.280090,496.641510 
	C669.115417,473.433411 670.241577,450.200989 666.790955,426.714661 
	C664.308228,409.816284 659.707397,393.545319 653.183838,377.798950 
	C651.833130,374.538635 651.740662,371.699463 653.312256,368.299225 
	C655.996826,362.490997 655.250488,356.645111 651.657349,351.202576 
	C649.121338,347.361328 646.344971,346.416138 642.020386,348.830200 
	C601.588745,371.399780 561.127991,393.918671 520.528992,416.184845 
	C515.206726,419.103790 512.445312,422.799835 512.321472,428.663910 
	C512.251465,431.980377 510.877502,434.108948 507.738922,435.647491 
	C501.013397,438.944336 494.478577,442.634674 487.911957,446.247986 
	C486.386993,447.087097 484.373627,447.500641 483.818085,450.305481 
	C496.129028,460.106781 508.376343,470.403625 521.526306,479.341888 
	C523.056458,477.991913 522.799744,476.738586 522.792419,475.634247 
	C522.718750,464.510925 527.494385,456.579620 537.043152,450.528534 
	C554.909668,439.206390 572.288879,427.115265 590.462463,414.934662 
M456.743713,387.500000 
	C456.750732,377.175232 456.737457,366.850403 456.779999,356.525787 
	C456.789856,354.135986 456.550507,351.926056 454.829041,350.033752 
	C441.629883,335.524994 425.462982,328.689056 406.011200,332.921448 
	C387.043549,337.048492 375.659943,349.669312 371.647858,368.418945 
	C367.491486,387.842834 374.577484,403.315674 390.069092,415.212463 
	C396.602631,420.229980 404.353455,423.016449 411.594269,426.747742 
	C426.278809,434.314972 439.611969,430.712952 452.529938,422.375793 
	C455.621796,420.380310 456.875946,417.693115 456.798950,413.977631 
	C456.623016,405.488373 456.743652,396.992920 456.743713,387.500000 
M464.326416,407.448608 
	C464.516846,407.675354 464.707275,407.902100 464.897705,408.128845 
	C465.136414,407.922699 465.459991,407.762909 465.601715,407.503754 
	C473.636841,392.806122 472.107025,378.328308 464.297943,363.992981 
	C464.297943,378.273987 464.297943,392.555023 464.326416,407.448608 
M497.282257,429.266083 
	C497.275391,429.102722 497.304779,428.926117 497.251373,428.779724 
	C497.198792,428.635529 497.037109,428.398254 496.966278,428.412720 
	C493.270447,429.166443 491.496429,431.160065 492.497375,435.131226 
	C495.310272,434.240509 496.846985,432.538483 497.282257,429.266083 
M474.240753,419.335846 
	C475.989319,423.360443 477.695618,424.019348 481.149994,421.731995 
	C479.066650,420.421143 477.596130,418.188477 474.240753,419.335846 
M505.653503,425.714142 
	C505.744476,423.154999 504.639160,422.450012 503.058289,424.547882 
	C502.098358,425.821747 502.072632,427.799652 501.561157,429.707916 
	C504.020874,429.383881 505.213257,428.304504 505.653503,425.714142 
M608.365479,548.499695 
	C612.007385,551.157410 615.649231,553.815125 619.291138,556.472778 
	C616.210999,552.809204 612.753906,549.696533 608.365479,548.499695 
M485.292755,416.244324 
	C487.030396,417.298767 488.634674,417.633606 489.939636,415.200562 
	C488.385803,413.737762 486.861084,412.152740 484.520752,413.540375 
	C483.378052,414.217896 483.967224,415.210663 485.292755,416.244324 
M485.168671,434.210175 
	C484.015137,435.649902 483.340546,437.192474 484.092133,439.323822 
	C486.295807,438.586761 487.446106,437.218475 487.604340,435.041138 
	C487.720947,433.436554 487.131683,432.851837 485.168671,434.210175 
z"/>
<path fill="#000000" opacity="1.000000" stroke="none" 
	d="
M378.209717,735.249634 
	C424.458130,736.171448 470.275604,735.422363 516.090149,735.623230 
	C531.562622,735.691040 547.036011,735.707825 562.508240,735.619995 
	C567.716003,735.590454 571.491150,737.590515 573.810974,742.282043 
	C576.178406,747.069763 575.694519,751.664490 572.741821,755.989197 
	C567.506775,763.656982 567.834717,765.128601 576.567566,769.129883 
	C592.249268,776.314880 601.803467,794.442139 596.310974,811.881104 
	C596.174255,812.315308 596.293762,812.830200 596.293762,813.250183 
	C596.682861,813.494873 596.937439,813.755920 597.237976,813.829468 
	C610.625549,817.107544 612.425964,819.408813 612.125061,833.285217 
	C612.063965,836.105713 611.813354,838.945496 611.361084,841.729431 
	C610.322083,848.125427 605.910400,852.076599 599.375244,852.296082 
	C593.549744,852.491821 587.713013,852.361877 581.881226,852.361328 
	C500.734985,852.353577 419.588745,852.337891 338.442505,852.353577 
	C335.229156,852.354248 332.149261,852.229980 329.408844,850.212280 
	C326.194183,847.845459 323.965729,845.061707 323.478668,840.855347 
	C322.958588,836.363342 322.637024,831.874451 322.998505,827.398499 
	C323.679352,818.967896 328.122467,814.913086 336.558167,814.598022 
	C337.709167,814.555054 338.857727,814.447571 340.418335,814.342285 
	C335.681244,807.012207 336.109772,799.410706 338.147858,791.786865 
	C340.336548,783.599670 344.983673,776.993408 352.119751,772.355957 
	C354.894928,770.552429 358.018738,769.290100 360.960083,767.736450 
	C366.223419,764.956116 367.001099,762.087158 363.236420,757.461060 
	C359.552277,752.933960 357.897583,748.196228 360.547943,742.723755 
	C363.197052,737.253784 368.050568,735.539490 373.789673,735.587219 
	C375.116669,735.598267 376.445496,735.396912 378.209717,735.249634 
M394.499939,809.706299 
	C456.819427,809.692749 519.138916,809.680237 581.458374,809.661987 
	C583.957458,809.661255 586.457153,809.630188 588.955505,809.569580 
	C591.936646,809.497253 593.490906,808.007935 593.736267,804.965088 
	C594.269653,798.350159 593.643921,792.031250 590.073669,786.191345 
	C585.825378,779.242249 579.812561,774.481873 572.413513,771.322144 
	C568.245667,769.542236 565.584656,766.772400 565.620850,761.872620 
	C565.642883,758.893127 567.347595,756.949036 569.053284,754.893738 
	C571.714417,751.687195 572.638489,748.133301 570.780457,744.228943 
	C569.005310,740.498596 565.868652,738.983704 561.825439,739.111938 
	C560.494019,739.154175 559.159729,739.098999 557.826721,739.099548 
	C497.673492,739.123474 437.520294,739.151245 377.367065,739.168762 
	C372.357758,739.170227 367.106659,738.572083 364.192139,744.051575 
	C361.384308,749.330566 364.672546,753.151245 367.361420,757.225708 
	C370.696106,762.278870 369.592255,766.773804 364.402161,769.903625 
	C362.128815,771.274536 359.597900,772.210266 357.255463,773.476013 
	C346.064575,779.523193 338.970856,792.558777 340.514130,803.627014 
	C341.115631,807.941101 342.716980,809.862549 347.512390,809.771484 
	C362.836426,809.480225 378.170013,809.690674 394.499939,809.706299 
M443.500000,848.792969 
	C466.327240,848.796631 489.154510,848.808105 511.981750,848.802063 
	C540.307434,848.794617 568.633179,848.795959 596.958801,848.741394 
	C604.507874,848.726807 607.722595,845.685669 607.971863,838.285889 
	C608.111877,834.128784 608.052429,829.947266 607.769165,825.798157 
	C607.451233,821.139160 604.745361,818.550842 600.052979,818.230225 
	C598.061218,818.094177 596.056091,818.130066 594.057007,818.130066 
	C511.579285,818.132019 429.101532,818.137878 346.623810,818.148682 
	C343.124908,818.149170 339.621307,818.097412 336.128143,818.253906 
	C330.440979,818.508606 327.285309,821.651550 327.020905,827.380859 
	C326.882935,830.370178 327.058197,833.375732 327.134247,836.372864 
	C327.368591,845.605164 330.653503,848.772034 340.027679,848.775208 
	C374.185120,848.786804 408.342560,848.787170 443.500000,848.792969 
M561.236206,813.467163 
	C538.963989,813.467163 516.691711,813.467163 494.419495,813.467163 
	C494.419403,813.570129 494.419281,813.673096 494.419189,813.776062 
	C516.794922,813.776062 539.170654,813.776062 561.236206,813.467163 
M405.404053,813.972168 
	C408.105988,813.972168 410.807892,813.972168 413.509827,813.972168 
	C413.504974,813.843140 413.500122,813.714172 413.495300,813.585144 
	C399.170288,813.585144 384.845276,813.585144 370.520233,813.585144 
	C370.520447,813.713928 370.520630,813.842712 370.520844,813.971497 
	C381.825226,813.971497 393.129639,813.971497 405.404053,813.972168 
z"/>
<path fill="#000000" opacity="1.000000" stroke="none" 
	d="
M626.153076,342.791443 
	C623.440979,344.309265 620.945129,345.562531 618.127014,346.961487 
	C615.723694,346.117310 614.600525,344.272217 613.548523,342.357452 
	C589.127075,297.910645 552.383850,268.380768 504.533173,252.285446 
	C490.776031,247.658005 477.613770,241.728500 464.334625,233.108398 
	C464.334625,272.598511 464.334625,311.071716 464.334625,349.639923 
	C458.180389,348.890106 455.786224,346.018036 455.785126,340.084747 
	C455.781769,322.257263 455.846954,304.429749 455.854309,286.602264 
	C455.862030,267.941589 455.785858,249.280701 455.867035,230.620438 
	C455.880920,227.431519 455.051056,224.989334 452.781464,222.603226 
	C440.505798,209.697067 434.286346,193.977097 431.966461,176.533478 
	C431.695160,174.493454 432.088318,172.527710 432.912689,170.681488 
	C434.030487,168.178162 436.005737,166.800797 438.786224,166.779800 
	C441.725616,166.757614 443.438232,168.491714 444.194794,171.102875 
	C444.932190,173.647995 445.227783,176.320221 445.949585,178.870941 
	C451.427826,198.230850 463.766724,212.016144 480.975494,221.833527 
	C492.653229,228.495514 505.479980,232.242447 518.147095,236.313675 
	C565.829285,251.638840 602.344788,281.135071 629.080933,323.167908 
	C630.867615,325.976837 632.611755,328.815125 634.476135,331.571777 
	C636.551147,334.639709 635.751831,336.727814 632.624451,338.436584 
	C630.445129,339.627380 628.447937,341.151611 626.153076,342.791443 
M543.265869,250.289215 
	C533.922363,245.879318 524.363708,242.039886 514.521484,238.853500 
	C498.685028,233.726471 482.713806,228.868744 469.182068,218.536270 
	C455.004761,207.710876 445.740051,193.736816 441.720917,176.326843 
	C441.188354,174.019836 441.630371,170.403122 438.258484,170.737259 
	C434.799133,171.080048 435.383698,174.603821 435.426941,177.235809 
	C435.437775,177.895126 435.596191,178.554413 435.711823,179.209274 
	C438.436859,194.640381 444.436340,208.558975 455.310822,220.012070 
	C458.452271,223.320709 459.454437,226.761337 459.437469,231.193207 
	C459.307465,265.173859 459.382721,299.155304 459.393829,333.136505 
	C459.394928,336.535126 459.393921,339.933716 459.393921,343.332336 
	C459.984436,343.325684 460.574951,343.319031 461.165466,343.312378 
	C461.165466,304.792694 461.165466,266.273010 461.165466,227.844849 
	C463.680115,227.669662 464.775513,228.520660 465.822266,229.297760 
	C478.426697,238.655029 492.763580,244.460632 507.437805,249.525833 
	C552.228821,264.986664 587.674500,292.042572 612.190491,333.018494 
	C619.588196,345.382904 615.825562,343.360962 629.083496,336.643280 
	C631.651978,335.341827 631.659241,333.755890 630.207520,331.419861 
	C608.670959,296.764404 581.403137,268.252472 543.265869,250.289215 
z"/>
</svg>