<svg version="1.1" id="Layer_1" xmlns="http://www.w3.org/2000/svg" xmlns:xlink="http://www.w3.org/1999/xlink" x="0px" y="0px"
	 width="100%" viewBox="0 0 1024 1024" enable-background="new 0 0 1024 1024" xml:space="preserve">
<path fill="#000000" opacity="1.000000" stroke="none" 
	d="
M476.975739,420.965668 
	C478.896118,422.363434 480.728394,423.787872 478.249756,426.734589 
	C543.053772,392.076935 606.805725,356.522919 670.775574,320.861145 
	C668.080566,315.580902 662.492432,313.972717 659.050110,308.567596 
	C677.297913,305.596497 694.905457,302.729614 712.513000,299.862762 
	C712.766602,300.259125 713.020142,300.655518 713.273743,301.051880 
	C701.596497,314.717529 689.919250,328.383179 677.673645,342.713989 
	C674.637878,337.112976 676.042419,331.270477 673.436951,325.480774 
	C609.344360,360.956268 545.485107,396.302612 481.242645,431.861084 
	C482.732178,432.484741 484.442749,433.124268 483.625214,435.386902 
	C483.187531,436.598297 483.702240,438.202454 483.153259,439.317169 
	C479.148865,447.447968 483.997070,451.744019 489.822388,456.047211 
	C502.006165,465.047455 513.972900,474.340942 526.084717,483.439575 
	C528.447388,485.214447 529.337219,487.354523 529.353455,490.272430 
	C529.487915,514.425293 530.273010,538.566528 530.524658,562.721924 
	C531.064941,614.584900 538.802917,665.429260 554.364441,714.991699 
	C555.608276,718.953369 557.063416,722.848328 558.358704,726.794617 
	C558.491211,727.198425 558.198120,727.741943 557.998779,728.740051 
	C500.172791,728.740051 442.310730,728.740051 384.579224,728.740051 
	C383.349762,726.830261 384.323669,725.276245 384.876068,723.775879 
	C395.214844,695.696655 400.651550,666.447021 405.658264,637.090759 
	C410.033813,611.435425 412.068420,585.588135 411.552307,559.580017 
	C411.268494,545.278625 410.409576,530.989258 407.581604,516.895325 
	C405.916748,508.598083 405.683685,508.298798 397.280121,508.288666 
	C382.948975,508.271362 368.617401,508.332214 354.286804,508.239471 
	C344.272247,508.174683 337.618073,503.574188 334.684753,494.974915 
	C331.611877,485.966492 333.925598,476.005127 341.917511,470.897461 
	C362.404755,457.804016 383.058960,444.833252 407.230225,439.274811 
	C413.725739,437.781128 420.307465,436.766052 426.987061,436.715485 
	C429.735138,436.694672 432.254578,435.987152 434.704254,434.907288 
	C445.610718,430.099548 457.763611,428.082977 467.316772,420.228851 
	C470.397247,417.696228 473.319916,420.502899 476.665344,420.920593 
	C477.014282,420.996826 476.975739,420.965668 476.975739,420.965668 
z"/>
<path fill="#000000" opacity="1.000000" stroke="none" 
	d="
M444.000061,733.698181 
	C480.664154,733.694885 516.828247,733.695007 552.992371,733.685303 
	C557.317749,733.684143 561.659912,733.377808 565.963928,733.666382 
	C570.777222,733.988892 574.461487,736.306458 576.325012,741.043762 
	C578.204285,745.821045 576.831177,749.743408 573.543457,753.390991 
	C569.690552,757.665710 570.570984,761.944702 575.849976,764.621582 
	C579.710876,766.579224 583.674438,768.293945 587.153870,770.961670 
	C597.320557,778.756897 601.171875,789.168457 600.236267,801.684570 
	C599.889893,806.318420 597.808472,808.272156 592.908691,808.249573 
	C563.078247,808.112122 533.246765,808.238220 503.415619,808.250427 
	C452.585876,808.271240 401.756134,808.273071 350.926392,808.282227 
	C343.410004,808.283569 342.953217,807.634277 342.610260,799.992493 
	C341.940430,785.066711 348.368164,774.387634 361.443024,767.489502 
	C363.504944,766.401672 365.637939,765.415527 367.581024,764.142639 
	C371.487946,761.583313 372.186310,757.458313 369.034637,753.959717 
	C365.361328,749.882202 363.522614,745.609375 366.154175,740.354980 
	C368.800476,735.071167 373.378967,733.566711 379.005219,733.600342 
	C400.502899,733.728821 422.001678,733.680786 444.000061,733.698181 
z"/>
<path fill="#000000" opacity="1.000000" stroke="none" 
	d="
M665.786499,391.381531 
	C672.550964,414.421600 676.383423,437.479706 675.268982,461.167114 
	C674.245422,482.922607 669.052856,503.871674 662.750122,524.616394 
	C658.783081,537.673401 655.075928,550.872131 655.387878,564.693359 
	C655.753357,580.890808 660.656677,595.434021 672.218018,607.276062 
	C674.093018,609.196655 676.133301,611.086914 675.331787,614.176270 
	C674.385925,617.821838 669.995605,618.802002 666.410400,615.880615 
	C656.906982,608.136963 650.074890,598.387939 645.743469,586.947876 
	C644.453979,583.541992 643.132385,579.964722 642.878906,576.391296 
	C642.449768,570.338867 638.936523,567.055176 634.384094,563.845520 
	C600.762756,540.140930 567.698181,515.668274 534.680969,491.132721 
	C532.791260,489.728485 530.551575,488.366119 533.768738,485.080872 
	C568.955627,510.802826 604.204529,536.570190 640.197205,562.881226 
	C640.895447,555.829651 641.334351,549.789917 642.118225,543.795288 
	C644.105652,528.595825 648.771484,513.974792 652.145264,499.078033 
	C660.881287,460.503876 656.802551,423.079224 643.445862,386.293671 
	C643.166626,385.524658 642.719299,384.816620 642.058716,383.497833 
	C638.929504,385.674225 636.014465,387.766205 633.035828,389.763367 
	C603.709961,409.426331 574.539551,429.328522 544.950195,448.587097 
	C534.592407,455.328583 527.905029,463.184448 529.163452,476.135742 
	C529.273193,477.265411 528.978760,478.453522 528.743652,479.587830 
	C528.654053,480.019653 528.202332,480.376312 527.530396,481.292725 
	C512.482483,470.730255 498.304718,459.193970 483.043671,447.192902 
	C488.834656,443.999695 493.584534,441.375214 498.340088,438.761078 
	C500.091522,437.798309 501.779816,436.662720 503.628601,435.945221 
	C510.822815,433.153503 515.705017,428.739594 515.760437,420.343750 
	C515.785767,416.507629 518.672974,414.722809 521.713318,413.052185 
	C558.053467,393.083252 594.365112,373.062317 630.681030,353.049286 
	C636.514954,349.834290 642.421692,346.737488 648.122498,343.300354 
	C651.012817,341.557770 653.047424,342.172455 655.118591,344.389221 
	C661.210693,350.909485 663.330811,358.486755 660.278870,366.920380 
	C659.034424,370.359558 659.184753,373.164520 660.508301,376.414673 
	C662.450684,381.184692 663.953247,386.133789 665.786499,391.381531 
z"/>
<path fill="#000000" opacity="1.000000" stroke="none" 
	d="
M543.000000,812.706665 
	C562.821045,812.693420 582.142090,812.673523 601.463135,812.670471 
	C610.496582,812.669006 614.290894,816.390259 614.348755,825.270325 
	C614.370483,828.601440 614.439697,831.934326 614.361877,835.263489 
	C614.186462,842.772278 609.071411,847.728271 601.680115,847.718140 
	C515.738342,847.600098 429.796600,847.493103 343.854828,847.377991 
	C331.319977,847.361145 328.080597,844.126587 327.829468,831.434753 
	C327.799805,829.936035 327.757111,828.436707 327.771973,826.938171 
	C327.871765,816.883118 332.057526,812.700745 342.127075,812.699707 
	C408.918060,812.692993 475.709015,812.702576 543.000000,812.706665 
z"/>
<path fill="#000000" opacity="1.000000" stroke="none" 
	d="
M398.368774,333.165894 
	C421.955048,321.432953 445.905518,330.434753 460.721985,346.808838 
	C462.533295,348.810608 463.170288,351.020111 463.173920,353.637146 
	C463.201080,373.294739 463.195892,392.953278 463.425690,412.608887 
	C463.469696,416.374664 462.334930,419.043640 459.178772,420.926849 
	C445.536316,429.066925 431.752045,435.319702 415.611786,427.221771 
	C405.359802,422.078125 394.356476,418.278564 386.294983,409.568298 
	C363.317383,384.741547 368.650696,350.207550 398.368774,333.165894 
z"/>
<path fill="#000000" opacity="1.000000" stroke="none" 
	d="
M461.109131,290.711853 
	C460.964417,269.741180 460.752808,249.243729 460.795959,228.746780 
	C460.804565,224.656357 459.765045,221.579971 456.910309,218.504013 
	C446.301605,207.073120 440.213745,193.368286 437.861481,178.002075 
	C437.537140,175.883392 437.619751,173.670120 437.772461,171.518997 
	C437.955719,168.937531 439.263794,167.032333 442.037384,166.816559 
	C445.036133,166.583282 446.706116,168.311081 447.216553,171.120667 
	C447.990906,175.382996 448.992828,179.566483 450.525818,183.632217 
	C457.992950,203.436081 472.776093,216.008713 491.341644,224.719086 
	C505.701111,231.456116 521.236694,235.033035 535.919678,240.922836 
	C579.748291,258.503906 613.058594,288.201935 637.223755,328.558044 
	C639.747803,332.773254 639.342407,335.187408 634.801697,336.918121 
	C630.618347,338.512665 626.836060,343.361053 622.821960,342.238190 
	C618.837036,341.123413 617.734497,335.272125 615.351990,331.511963 
	C590.135864,291.715637 555.226868,264.303955 510.563507,249.274643 
	C494.908234,244.006622 479.728180,237.699570 465.767151,227.068176 
	C465.767151,266.638214 465.767151,305.411652 465.767151,344.351929 
	C461.490479,344.347778 461.698547,341.624359 461.691864,339.157562 
	C461.658783,326.992279 461.704529,314.826660 461.632294,302.661713 
	C461.609558,298.835358 461.306519,295.010651 461.109131,290.711853 
z"/>
<path fill="#000000" opacity="1.000000" stroke="none" 
	d="
M477.188599,384.131653 
	C477.042084,394.977600 473.984467,404.325928 466.917664,412.436646 
	C465.339935,393.617706 465.778931,374.854950 466.332397,355.921539 
	C473.413147,363.864807 476.065613,373.462463 477.188599,384.131653 
z"/>
<path fill="#000000" opacity="1.000000" stroke="none" 
	d="
M494.998779,410.998352 
	C493.947418,410.253510 492.896057,409.508728 491.873352,408.784210 
	C497.500977,402.731934 500.339935,402.718231 507.917908,408.254120 
	C504.788483,413.322388 500.236359,411.929596 495.409241,411.032410 
	C495.000000,411.000000 494.998779,410.998352 494.998779,410.998352 
z"/>
<path fill="#000000" opacity="1.000000" stroke="none" 
	d="
M477.035828,421.009033 
	C475.899536,419.928741 474.135620,419.472565 473.472260,417.866882 
	C478.367126,412.495941 483.236908,413.545074 488.570923,418.444885 
	C485.894867,423.271729 482.003815,422.970947 477.337402,421.030457 
	C476.975739,420.965668 477.014282,420.996826 477.035828,421.009033 
z"/>
<path fill="#000000" opacity="1.000000" stroke="none" 
	d="
M493.229767,434.819153 
	C491.847443,438.716370 488.963074,439.920013 485.631104,440.606964 
	C483.572784,433.036041 486.111237,428.919983 493.453491,427.711945 
	C494.735931,429.975616 493.172089,432.190735 493.229767,434.819153 
z"/>
<path fill="#000000" opacity="1.000000" stroke="none" 
	d="
M497.087646,425.395081 
	C498.941223,423.973236 500.480469,422.695648 502.600006,422.684784 
	C504.239105,430.129395 502.410828,433.152618 495.421631,434.546082 
	C494.314606,431.324493 495.284729,428.450806 497.087646,425.395081 
z"/>
<path fill="#000000" opacity="1.000000" stroke="none" 
	d="
M495.001038,411.000610 
	C495.797852,412.129364 497.804840,412.865112 496.718842,414.654419 
	C495.619598,416.465454 493.713440,417.416809 491.600739,417.002716 
	C488.559021,416.406525 485.703491,415.233459 482.969604,413.238068 
	C486.380035,409.112823 490.169830,409.111115 494.652802,410.906464 
	C494.998779,410.998352 495.000000,411.000000 495.001038,411.000610 
z"/>
<path fill="#000000" opacity="1.000000" stroke="none" 
	d="
M505.279846,421.621216 
	C506.839142,419.289307 508.580505,417.956360 511.122284,418.050446 
	C513.067932,424.183899 511.411316,427.582550 505.281891,429.858582 
	C503.161957,427.287079 504.994385,424.592896 505.279846,421.621216 
z"/>
</svg>